<svg width="22" height="21" viewBox="0 0 22 21" fill="none" xmlns="http://www.w3.org/2000/svg">
<g clip-path="url(#clip0_0_3857)">
<path d="M17.7768 0.450957C17.2373 -0.0617613 16.3846 -0.041008 15.8706 0.497279L13.7529 2.72054C12.138 2.47482 10.4986 2.97189 9.29207 4.07297L9.28187 4.06334C9.12783 3.91662 8.88399 3.92255 8.73727 4.07658C8.73727 4.07658 8.73727 4.07658 8.73722 4.07663L8.1281 4.71594C7.93665 4.91577 7.83313 5.18393 7.84064 5.46056C7.84257 5.53269 7.81565 5.60265 7.76576 5.6548L7.76066 5.66014C6.28139 7.21371 4.95886 8.90927 3.81223 10.7223L1.73935 14.0019C1.39742 14.5455 1.48506 15.2546 1.94909 15.6986L5.82641 19.3918C6.29232 19.8338 7.00487 19.8869 7.53122 19.519L10.7062 17.289C12.4613 16.0557 14.0905 14.6526 15.5703 13.0998L15.5754 13.0945C15.6254 13.0423 15.6939 13.012 15.7661 13.01C16.0427 13.004 16.3055 12.8876 16.4958 12.6867L17.105 12.0472C17.2518 11.8931 17.2459 11.6493 17.0918 11.5026C17.0918 11.5026 17.0918 11.5026 17.0918 11.5025L17.0816 11.4929C18.1228 10.2343 18.5396 8.57255 18.2157 6.97146L20.3334 4.7482C20.8462 4.20871 20.8254 3.35599 20.2871 2.84202L17.7768 0.450957ZM16.8329 0.849364C16.9862 0.844693 17.135 0.902138 17.2454 1.00865L19.7557 3.39996C19.9864 3.62025 19.9953 3.98567 19.7756 4.21694L19.6427 4.35658L16.2957 1.16813L16.4285 1.02849C16.5339 0.917161 16.6795 0.852638 16.8329 0.849364ZM18.8456 5.19293L15.4986 2.005L15.7643 1.72611L19.1114 4.91432L18.8456 5.19293ZM17.7829 6.30884L14.4359 3.12063L14.9672 2.56274L18.3145 5.7512L17.7829 6.30884ZM15.938 12.1554C15.8883 12.2079 15.8196 12.2382 15.7473 12.2398C15.4708 12.2457 15.2081 12.362 15.0178 12.5628L15.0127 12.5682C13.5679 14.0843 11.9772 15.4544 10.2636 16.6585L7.08856 18.8885C6.86302 19.0462 6.55759 19.0235 6.35791 18.834L2.48045 15.1408C2.28168 14.9504 2.24422 14.6466 2.39079 14.4137L4.46391 11.1341C5.58319 9.36407 6.87424 7.70866 8.31826 6.19184L8.32336 6.18649C8.51476 5.98666 8.61824 5.71855 8.61078 5.44192C8.60885 5.36965 8.63586 5.29963 8.68589 5.24744L9.02936 4.88683L16.2815 11.7947L15.938 12.1554ZM16.5225 10.9602L13.9725 8.53133L9.85116 4.60562C10.9023 3.66883 12.3217 3.25969 13.7101 3.49332L17.4459 7.05173C17.7467 8.42718 17.4071 9.86479 16.5225 10.9602Z" fill="black"/>
<path d="M12.3345 4.06704C11.9151 4.21216 11.5151 4.40819 11.1435 4.65063C10.9653 4.76692 10.9151 5.00561 11.0314 5.18377C11.1477 5.36193 11.3864 5.4121 11.5646 5.29582C11.8834 5.08775 12.2265 4.91956 12.5863 4.79504C12.7874 4.72546 12.894 4.50613 12.8244 4.30505C12.7549 4.10397 12.5355 3.99736 12.3345 4.06694V4.06704Z" fill="black"/>
<path d="M6.83188 9.71372C6.66099 9.58703 6.41971 9.62285 6.29302 9.79379C5.81574 10.4378 5.35657 11.1078 4.92831 11.7853C4.81462 11.9651 4.86826 12.2031 5.04811 12.3167C5.22795 12.4304 5.46587 12.3768 5.57956 12.1969C5.99766 11.5355 6.446 10.8813 6.91201 10.2525C7.03865 10.0816 7.00277 9.8404 6.83188 9.71372Z" fill="black"/>
<path d="M8.04809 8.20922C7.8851 8.07252 7.64218 8.0938 7.50543 8.25675C7.42169 8.35657 7.33858 8.45687 7.2561 8.55765C7.12132 8.72228 7.14554 8.96501 7.31022 9.09974C7.4749 9.23447 7.71758 9.2103 7.85231 9.04562C7.93282 8.9472 8.01395 8.8493 8.09572 8.75189C8.23242 8.58895 8.21114 8.34597 8.04809 8.20922Z" fill="black"/>
<path d="M8.04508 3.05456C8.15048 3.0547 8.25131 3.01151 8.32397 2.93514L8.36967 2.88699C8.77949 2.45449 9.34536 2.20391 9.94105 2.1912C10.1538 2.186 10.3221 2.00933 10.3169 1.7966C10.3117 1.58386 10.135 1.41557 9.92227 1.42077C9.12228 1.43806 8.36244 1.77464 7.81212 2.35554L7.76657 2.40335C7.61975 2.55734 7.62558 2.80118 7.77957 2.94795C7.85117 3.01623 7.94637 3.05432 8.04532 3.05436L8.04508 3.05456Z" fill="black"/>
<path d="M9.4662 0.455024C9.46047 0.242627 9.28419 0.0747701 9.07174 0.0794409C8.2717 0.0967273 7.51182 0.433307 6.96145 1.01426L6.91585 1.06212C6.76913 1.21616 6.77505 1.46 6.92909 1.60676C7.08313 1.75348 7.32697 1.74756 7.47373 1.59352L7.51933 1.54566C7.92905 1.11311 8.49484 0.862483 9.09047 0.849626C9.30316 0.844474 9.4714 0.667854 9.4662 0.455168C9.4662 0.455072 9.4662 0.455072 9.4662 0.455024Z" fill="black"/>
<path d="M12.7616 17.9471C12.6001 17.8086 12.357 17.8272 12.2185 17.9887L12.1755 18.0388C11.7888 18.492 11.2368 18.7717 10.6427 18.8155C10.4305 18.8316 10.2716 19.0166 10.2877 19.2288C10.303 19.4295 10.4702 19.5846 10.6716 19.5848C10.6814 19.5848 10.6914 19.5844 10.7013 19.5836C11.4994 19.5248 12.2408 19.1492 12.7603 18.5404L12.8033 18.4902C12.9418 18.3287 12.9231 18.0856 12.7616 17.9471Z" fill="black"/>
<path d="M11.2067 20.5248C11.222 20.7255 11.3891 20.8805 11.5904 20.8807C11.6002 20.8807 11.6102 20.8803 11.6201 20.8796C12.4182 20.8209 13.1596 20.4452 13.679 19.8364L13.722 19.7863C13.8625 19.6265 13.8469 19.3831 13.6871 19.2426C13.5273 19.1022 13.2839 19.1178 13.1435 19.2776C13.1414 19.2799 13.1394 19.2823 13.1374 19.2846L13.0943 19.3348C12.7076 19.788 12.1556 20.0676 11.5615 20.1114C11.3493 20.1276 11.1905 20.3127 11.2067 20.5248Z" fill="black"/>
</g>
<defs>
<clipPath id="clip0_0_3857">
<rect width="20.8013" height="20.8013" fill="white" transform="translate(0.717285 0.0793457)"/>
</clipPath>
</defs>
</svg>
