<svg width="21" height="21" viewBox="0 0 21 21" fill="none" xmlns="http://www.w3.org/2000/svg">
<path d="M5.6726 10.0173C5.6726 9.75601 5.46114 9.54456 5.19982 9.54456C4.93851 9.54456 4.72705 9.75601 4.72705 10.0173C4.72705 11.2588 6.09639 12.9633 6.25245 13.154C6.34619 13.2676 6.4819 13.3266 6.61854 13.3266C6.7238 13.3266 6.82999 13.2915 6.91815 13.2195C7.1199 13.0538 7.14897 12.756 6.9837 12.5538C6.47684 11.9361 5.6726 10.7015 5.6726 10.0173Z" fill="black"/>
<path d="M15.6008 9.54456C15.3395 9.54456 15.1281 9.75601 15.1281 10.0173C15.1281 10.6992 14.3238 11.9351 13.8169 12.5543C13.6516 12.756 13.6812 13.0538 13.883 13.2195C13.9707 13.2915 14.0769 13.3266 14.1826 13.3266C14.3192 13.3266 14.4545 13.2676 14.5482 13.154C14.7043 12.9633 16.0736 11.2588 16.0736 10.0173C16.0736 9.75601 15.8622 9.54456 15.6008 9.54456Z" fill="black"/>
<path d="M10.4 9.54456C10.1387 9.54456 9.92725 9.75601 9.92725 10.0173V12.8539C9.92725 13.1152 10.1387 13.3266 10.4 13.3266C10.6613 13.3266 10.8728 13.1152 10.8728 12.8539V10.0173C10.8727 9.75601 10.6613 9.54456 10.4 9.54456Z" fill="black"/>
<path d="M15.601 1.9804C15.3145 1.9804 15.0151 2.01829 14.7042 2.07604C13.663 0.86227 12.1216 0.0893555 10.4007 0.0893555C8.67974 0.0893555 7.13834 0.86227 6.09715 2.076C5.7862 2.01829 5.48681 1.98036 5.20036 1.98036C2.33284 1.9804 0 4.31324 0 7.18072C0 9.1456 1.10803 10.9318 2.84763 11.815L2.83841 18.9595C2.83796 19.4751 3.03829 19.9599 3.40257 20.3246C3.76729 20.6899 4.25158 20.8907 4.7673 20.8907H16.0359C17.0996 20.8907 17.9648 20.0255 17.9648 18.9618V11.8081C19.6979 10.9226 20.8014 9.13913 20.8014 7.18072C20.8013 4.31324 18.4685 1.9804 15.601 1.9804ZM17.0193 18.9618C17.0193 19.5038 16.5779 19.9452 16.0359 19.9452H4.76726C4.50457 19.9452 4.25757 19.8427 4.07151 19.6567C3.88589 19.4706 3.78342 19.2236 3.78386 18.9605L3.78634 17.1086H17.0193V18.9618ZM17.312 11.0722C17.287 11.0823 17.2635 11.0944 17.2413 11.1087C17.1817 11.1456 17.1328 11.1946 17.0963 11.2508C17.0594 11.3067 17.0345 11.3714 17.0243 11.4406C17.0202 11.4669 17.0188 11.4932 17.0192 11.52V16.1631H3.78754L3.79361 11.5264C3.79406 11.5006 3.79268 11.4743 3.789 11.4489C3.77885 11.3773 3.75253 11.3108 3.71419 11.2531C3.67816 11.1991 3.63109 11.152 3.57382 11.116C3.55029 11.1012 3.52534 11.0883 3.4995 11.0776C1.94782 10.3991 0.9455 8.8709 0.9455 7.18072C0.9455 4.83445 2.8541 2.9259 5.20032 2.9259C5.29202 2.9259 5.38881 2.93698 5.48379 2.94447C5.00548 3.77576 4.72755 4.73637 4.72755 5.76244C4.72755 6.02376 4.939 6.23522 5.20032 6.23522C5.46163 6.23522 5.67309 6.02376 5.67309 5.76244C5.67309 3.15579 7.79403 1.03486 10.4007 1.03486C13.0073 1.03486 15.1282 3.15579 15.1282 5.76244C15.1282 6.02376 15.3397 6.23522 15.601 6.23522C15.8623 6.23522 16.0738 6.02376 16.0738 5.76244C16.0738 4.73637 15.7958 3.7758 15.3175 2.94447C15.4125 2.93698 15.5093 2.9259 15.601 2.9259C17.9473 2.9259 19.8558 4.8345 19.8558 7.18072C19.8558 8.86492 18.8577 10.3912 17.312 11.0722Z" fill="black"/>
</svg>
