<svg width="22" height="21" viewBox="0 0 22 21" fill="none" xmlns="http://www.w3.org/2000/svg">
<g clip-path="url(#clip0_0_3870)">
<path d="M11.1185 8.8446C8.19559 8.8446 2.66797 9.25218 2.66797 10.7947C2.66797 12.3373 8.19559 12.7449 11.1185 12.7449C14.0414 12.7449 19.569 12.3373 19.569 10.7947C19.569 9.25218 14.0414 8.8446 11.1185 8.8446ZM11.1185 12.0948C5.9718 12.0948 3.31801 11.1848 3.31801 10.7947C3.31801 10.4047 5.9718 9.49465 11.1185 9.49465C16.2652 9.49465 18.919 10.4047 18.919 10.7947C18.919 11.1848 16.2652 12.0948 11.1185 12.0948Z" fill="black"/>
<path d="M11.1186 7.54468C6.2342 7.54468 1.04297 8.68225 1.04297 10.7949V17.2953C1.04297 19.4079 6.2342 20.5455 11.1186 20.5455C16.003 20.5455 21.1942 19.4079 21.1942 17.2953V10.7949C21.1942 8.68387 16.003 7.54468 11.1186 7.54468ZM1.69301 17.2953V12.0049C2.08514 12.3247 2.52348 12.5832 2.99309 12.7717V18.5596C2.15681 18.1631 1.69301 17.7207 1.69301 17.2953ZM18.5941 13.0203V18.83C18.1682 18.9854 17.7342 19.1175 17.294 19.2259V13.3928C17.7575 13.2823 18.193 13.1581 18.5941 13.0203ZM16.644 19.3754C16.2364 19.4621 15.803 19.539 15.3439 19.6062V13.7558C15.7914 13.6908 16.2263 13.6183 16.644 13.5342V19.3754ZM14.6938 19.6913C14.2776 19.741 13.8442 19.7822 13.3937 19.8152V13.9648C13.8332 13.9323 14.2677 13.8923 14.6938 13.8423V19.6913ZM12.7437 19.8539C12.3225 19.8755 11.8891 19.8883 11.4436 19.8922V14.0418C11.8769 14.0373 12.3114 14.024 12.7437 14.0015V19.8539ZM10.7936 19.8922C10.3487 19.8879 9.91538 19.8751 9.4935 19.8539V14.0025C9.92578 14.0249 10.3603 14.0383 10.7936 14.0428V19.8922ZM8.84346 19.8142C8.39363 19.7817 7.96027 19.7404 7.54338 19.6904V13.84C7.96948 13.8901 8.40403 13.931 8.84346 13.9625V19.8142ZM6.89334 19.6052C6.43398 19.538 6.00062 19.4611 5.59326 19.3744V13.5348C6.01091 13.619 6.44579 13.6928 6.89334 13.7565V19.6052ZM4.94321 19.2259C4.50303 19.1175 4.06903 18.9854 3.64313 18.83V13.0203C4.04421 13.1581 4.47974 13.2823 4.94321 13.3928V19.2259ZM19.2441 18.5596V12.7717C19.7137 12.5832 20.1521 12.3247 20.5442 12.0049V17.2953C20.5442 17.7207 20.0804 18.1631 19.2441 18.5596ZM11.1186 13.395C5.564 13.395 1.69301 12.0248 1.69301 10.7949C1.69301 9.56501 5.564 8.19472 11.1186 8.19472C16.6732 8.19472 20.5442 9.56501 20.5442 10.7949C20.5442 12.0248 16.6732 13.395 11.1186 13.395Z" fill="black"/>
<path d="M6.88128 2.95986L7.39904 2.61469L7.03826 2.07385L6.52083 2.41902C6.35445 2.52993 6.21475 2.67637 6.11181 2.84779C6.00886 3.01921 5.94524 3.21134 5.92553 3.41032C5.90582 3.60931 5.93051 3.81018 5.99782 3.99847C6.06513 4.18676 6.17338 4.35776 6.31477 4.49916L6.68789 4.87293C6.76136 4.94634 6.81762 5.03515 6.85261 5.13294C6.88759 5.23073 6.90043 5.33507 6.8902 5.43843C6.87997 5.54179 6.84693 5.64158 6.79345 5.73062C6.73997 5.81966 6.6674 5.89571 6.58096 5.9533L6.0632 6.29847L6.42398 6.8393L6.94141 6.49413C7.10779 6.38323 7.24749 6.23679 7.35044 6.06537C7.45338 5.89394 7.517 5.70181 7.53671 5.50283C7.55642 5.30385 7.53174 5.10297 7.46443 4.91468C7.39712 4.7264 7.28886 4.55539 7.14747 4.414L6.77435 4.04023C6.70088 3.96681 6.64462 3.87801 6.60964 3.78021C6.57465 3.68242 6.56181 3.57808 6.57204 3.47473C6.58227 3.37137 6.61531 3.27157 6.66879 3.18254C6.72227 3.0935 6.79484 3.01744 6.88128 2.95986Z" fill="black"/>
<path d="M11.1064 1.33461L11.6241 0.989443L11.2634 0.448608L10.7459 0.79378C10.5795 0.904683 10.4398 1.05112 10.3369 1.22255C10.234 1.39397 10.1703 1.5861 10.1506 1.78508C10.1309 1.98406 10.1556 2.18494 10.2229 2.37323C10.2902 2.56152 10.3985 2.73252 10.5399 2.87391L10.913 3.24768C10.9865 3.3211 11.0427 3.4099 11.0777 3.5077C11.1127 3.60549 11.1255 3.70983 11.1153 3.81318C11.1051 3.91654 11.072 4.01634 11.0185 4.10538C10.9651 4.19441 10.8925 4.27047 10.8061 4.32805L10.2883 4.67322L10.6491 5.21406L11.1665 4.86889C11.3329 4.75798 11.4726 4.61154 11.5755 4.44012C11.6785 4.2687 11.7421 4.07657 11.7618 3.87759C11.7815 3.6786 11.7568 3.47773 11.6895 3.28944C11.6222 3.10115 11.514 2.93015 11.3726 2.78876L10.9994 2.41498C10.926 2.34157 10.8697 2.25276 10.8347 2.15497C10.7997 2.05718 10.7869 1.95284 10.7971 1.84948C10.8074 1.74613 10.8404 1.64633 10.8939 1.55729C10.9474 1.46826 11.0199 1.3922 11.1064 1.33461Z" fill="black"/>
<path d="M15.6572 2.95986L16.1749 2.61469L15.8141 2.07385L15.2967 2.41902C15.1303 2.52993 14.9906 2.67637 14.8877 2.84779C14.7847 3.01921 14.7211 3.21134 14.7014 3.41032C14.6817 3.60931 14.7064 3.81018 14.7737 3.99847C14.841 4.18676 14.9493 4.35776 15.0906 4.49916L15.4638 4.87293C15.5372 4.94634 15.5935 5.03515 15.6285 5.13294C15.6635 5.23073 15.6763 5.33507 15.6661 5.43843C15.6559 5.54179 15.6228 5.64158 15.5693 5.73062C15.5159 5.81966 15.4433 5.89571 15.3568 5.9533L14.8391 6.29847L15.1999 6.8393L15.7173 6.49413C15.8837 6.38323 16.0234 6.23679 16.1263 6.06537C16.2293 5.89394 16.2929 5.70181 16.3126 5.50283C16.3323 5.30385 16.3076 5.10297 16.2403 4.91468C16.173 4.7264 16.0647 4.55539 15.9234 4.414L15.5502 4.04023C15.4768 3.96681 15.4205 3.87801 15.3855 3.78021C15.3505 3.68242 15.3377 3.57808 15.3479 3.47473C15.3581 3.37137 15.3912 3.27157 15.4447 3.18254C15.4981 3.0935 15.5707 3.01744 15.6572 2.95986Z" fill="black"/>
</g>
<defs>
<clipPath id="clip0_0_3870">
<rect width="20.8013" height="20.8013" fill="white" transform="translate(0.717285 0.0692139)"/>
</clipPath>
</defs>
</svg>
