<svg width="21" height="21" viewBox="0 0 21 21" fill="none" xmlns="http://www.w3.org/2000/svg">
<g clip-path="url(#clip0_0_3814)">
<path d="M20.1078 19.7169C19.8879 19.9368 19.5955 20.0579 19.2846 20.0579C18.9736 20.0579 18.6812 19.9368 18.4614 19.7169C17.6907 18.9461 16.4366 18.9462 15.6658 19.7169C15.446 19.9368 15.1536 20.0579 14.8426 20.0579C14.5317 20.0579 14.2393 19.9368 14.0194 19.7169C13.2487 18.9461 11.9946 18.9461 11.2239 19.7169C11.004 19.9368 10.7116 20.0579 10.4007 20.0579C10.0897 20.0579 9.79734 19.9368 9.57743 19.7169C8.80672 18.9461 7.55263 18.9461 6.78188 19.7169C6.56201 19.9368 6.26965 20.0579 5.95869 20.0579C5.64772 20.0579 5.35537 19.9368 5.13549 19.7169C4.36479 18.9461 3.1107 18.9462 2.33995 19.7169C2.12007 19.9368 1.82772 20.0579 1.51675 20.0579C1.20579 20.0579 0.913435 19.9368 0.693558 19.7169C0.534948 19.5583 0.277694 19.5582 0.119003 19.7169C-0.0396474 19.8755 -0.039688 20.1327 0.119003 20.2914C0.492371 20.6648 0.988758 20.8704 1.51675 20.8704C2.04475 20.8704 2.54114 20.6648 2.9145 20.2914C3.36848 19.8375 4.10705 19.8375 4.56094 20.2914C4.9343 20.6648 5.43069 20.8704 5.95869 20.8704C6.48672 20.8704 6.98311 20.6648 7.35648 20.2914C7.81037 19.8375 8.54894 19.8375 9.00287 20.2914C9.37624 20.6648 9.87267 20.8704 10.4007 20.8704C10.9287 20.8704 11.4251 20.6648 11.7985 20.2914C12.2523 19.8375 12.9909 19.8375 13.4448 20.2914C13.8182 20.6648 14.3146 20.8704 14.8426 20.8704C15.3706 20.8704 15.867 20.6648 16.2404 20.2914C16.6944 19.8375 17.4329 19.8375 17.8868 20.2914C18.2602 20.6648 18.7566 20.8704 19.2846 20.8704C19.8126 20.8704 20.309 20.6648 20.6824 20.2914C20.841 20.1328 20.841 19.8755 20.6824 19.7169C20.5237 19.5582 20.2664 19.5582 20.1078 19.7169Z" fill="black"/>
<path d="M20.1077 16.4443C19.8879 16.6641 19.5955 16.7853 19.2846 16.7853C18.9736 16.7853 18.6812 16.6642 18.4614 16.4443C17.6906 15.6735 16.4366 15.6735 15.6658 16.4443C15.4459 16.6641 15.1536 16.7853 14.8426 16.7853C14.5317 16.7853 14.2393 16.6642 14.0194 16.4443C13.2487 15.6736 11.9946 15.6735 11.2239 16.4443C10.77 16.8982 10.0314 16.8982 9.57745 16.4443C8.80679 15.6735 7.55265 15.6736 6.78191 16.4443C6.56203 16.6641 6.26968 16.7853 5.95871 16.7853C5.64775 16.7853 5.35539 16.6642 5.13552 16.4443C4.36477 15.6735 3.11076 15.6735 2.33998 16.4443C2.1201 16.6641 1.82774 16.7853 1.51678 16.7853C1.20582 16.7853 0.91346 16.6642 0.693584 16.4443C0.534933 16.2857 0.277679 16.2857 0.118988 16.4443C-0.0396627 16.6029 -0.0396627 16.8602 0.118988 17.0189C0.889774 17.7896 2.14383 17.7897 2.91453 17.0189C3.3685 16.5649 4.10707 16.5649 4.56096 17.0189C5.33167 17.7897 6.58576 17.7896 7.3565 17.0189C7.8104 16.5649 8.549 16.5649 9.0029 17.0189C9.77364 17.7896 11.0277 17.7896 11.7984 17.0189C12.2523 16.5649 12.9909 16.5649 13.4448 17.0189C13.8303 17.4043 14.3363 17.597 14.8426 17.5969C15.3488 17.5969 15.8551 17.4042 16.2404 17.0189C16.6943 16.5649 17.4329 16.5649 17.8868 17.0189C18.6575 17.7897 19.9116 17.7896 20.6823 17.0189C20.841 16.8602 20.841 16.603 20.6823 16.4443C20.5237 16.2856 20.2664 16.2856 20.1077 16.4443Z" fill="black"/>
<path d="M0.406306 4.29448H6.96087V13.0136C6.89891 13.0622 6.83895 13.1144 6.78191 13.1715C6.56203 13.3914 6.26968 13.5125 5.95871 13.5125C5.64775 13.5125 5.35539 13.3914 5.13552 13.1715C4.36477 12.4007 3.11076 12.4007 2.33997 13.1715C2.1201 13.3914 1.82774 13.5125 1.51678 13.5125C1.20582 13.5125 0.91346 13.3914 0.693584 13.1715C0.534933 13.0129 0.277679 13.0129 0.118988 13.1715C-0.0396627 13.3301 -0.0396627 13.5874 0.118988 13.7461C0.889774 14.5168 2.14382 14.5169 2.91453 13.7461C3.3685 13.2921 4.10707 13.2921 4.56096 13.7461C5.33167 14.5169 6.58576 14.5168 7.3565 13.7461C7.81039 13.2921 8.549 13.2921 9.0029 13.7461C9.77364 14.5168 11.0277 14.5168 11.7984 13.7461C12.2523 13.2921 12.9909 13.2921 13.4448 13.7461C13.8303 14.1315 14.3363 14.3242 14.8426 14.3241C15.3488 14.3241 15.8551 14.1314 16.2404 13.7461C16.6943 13.2921 17.4329 13.2921 17.8868 13.7461C18.6575 14.5169 19.9116 14.5168 20.6823 13.7461C20.841 13.5874 20.841 13.3302 20.6823 13.1715C20.5237 13.0129 20.2664 13.0129 20.1077 13.1715C19.8879 13.3914 19.5955 13.5125 19.2846 13.5125C18.9736 13.5125 18.6812 13.3914 18.4614 13.1715C18.4043 13.1144 18.3444 13.0622 18.2824 13.0136V4.29448H20.3951C20.6195 4.29448 20.8013 4.11255 20.8013 3.8882C20.8013 3.66386 20.6195 3.48193 20.3951 3.48193H18.2608C18.0573 1.56642 16.432 0.0692139 14.4634 0.0692139C12.4949 0.0692139 10.8696 1.56642 10.6661 3.48193H9.37691C9.17341 1.56642 7.5481 0.0692139 5.57954 0.0692139C3.61097 0.0692139 1.9857 1.56642 1.7822 3.48193H0.406306C0.18192 3.48193 3.04709e-05 3.66386 3.04709e-05 3.8882C3.04709e-05 4.11255 0.18192 4.29448 0.406306 4.29448ZM4.25926 3.48193C4.43319 2.9179 4.95923 2.50687 5.57954 2.50687C6.19984 2.50687 6.72592 2.9179 6.89981 3.48193H4.25926ZM15.8448 4.29448V5.43205H9.39853V4.29448H15.8448ZM15.8448 7.05715H9.39853V6.2446H15.8448V7.05715ZM9.39853 7.86971H15.8448V9.00728H9.39853V7.86971ZM13.1432 3.48193C13.3171 2.9179 13.8431 2.50687 14.4634 2.50687C15.0837 2.50687 15.6098 2.9179 15.7837 3.48193H13.1432ZM14.8426 13.5125C14.5317 13.5125 14.2393 13.3914 14.0194 13.1715C13.2487 12.4008 11.9946 12.4007 11.2239 13.1715C10.7699 13.6254 10.0314 13.6254 9.57745 13.1715C9.52041 13.1144 9.46048 13.0622 9.39853 13.0136V11.4449H10.7934C11.0178 11.4449 11.1997 11.263 11.1997 11.0387C11.1997 10.8143 11.0178 10.6324 10.7934 10.6324H9.39853V9.81983H15.8448V10.6324H14.4499C14.2255 10.6324 14.0436 10.8143 14.0436 11.0387C14.0436 11.263 14.2255 11.4449 14.4499 11.4449H15.8448V13.0136C15.7828 13.0622 15.7229 13.1144 15.6658 13.1715C15.4459 13.3914 15.1536 13.5125 14.8426 13.5125ZM14.4634 0.881765C16.1212 0.881765 17.4699 2.23044 17.4699 3.8882V12.6358C17.2021 12.58 16.9251 12.58 16.6573 12.6358V3.8882C16.6573 2.67852 15.6732 1.69432 14.4634 1.69432C13.3926 1.69432 12.499 2.46575 12.3079 3.48193H11.4852C11.6843 2.01572 12.9435 0.881765 14.4634 0.881765ZM5.57954 0.881765C7.2373 0.881765 8.58597 2.23044 8.58597 3.8882V12.6358C8.3182 12.5799 8.0412 12.5799 7.77342 12.6358V3.8882C7.77342 2.67852 6.78926 1.69432 5.57954 1.69432C4.50867 1.69432 3.61511 2.46575 3.42396 3.48193H2.60133C2.80037 2.01572 4.05966 0.881765 5.57954 0.881765Z" fill="black"/>
<path d="M12.6216 10.6323C12.5144 10.6323 12.4099 10.6758 12.334 10.7514C12.2584 10.8269 12.2153 10.9317 12.2153 11.0386C12.2153 11.1455 12.2584 11.2503 12.334 11.3258C12.4099 11.4014 12.5144 11.4449 12.6216 11.4449C12.7285 11.4449 12.8333 11.4014 12.9088 11.3258C12.9844 11.2503 13.0279 11.1455 13.0279 11.0386C13.0279 10.9317 12.9844 10.8269 12.9088 10.7514C12.8333 10.6758 12.7285 10.6323 12.6216 10.6323Z" fill="black"/>
</g>
<defs>
<clipPath id="clip0_0_3814">
<rect width="20.8013" height="20.8013" fill="white" transform="translate(0 0.0692139)"/>
</clipPath>
</defs>
</svg>
