<svg width="21" height="21" viewBox="0 0 21 21" fill="none" xmlns="http://www.w3.org/2000/svg">
<path d="M9.98355 10.3837C9.90943 10.4095 9.8369 10.4397 9.76633 10.474C9.25113 10.7465 8.85359 11.1983 8.64885 11.744C8.31262 12.5283 6.75389 15.1608 0.809828 16.0618C0.617547 16.0885 0.445525 16.1953 0.336172 16.3557C0.228764 16.5141 0.193569 16.7107 0.239326 16.8965C0.371744 17.3766 0.60846 17.8215 0.93259 18.1995C0.954184 18.2381 0.983014 18.2721 1.0175 18.2998C1.63693 18.9627 2.40373 19.4705 3.25586 19.7821C3.26506 19.7859 3.27359 19.7903 3.28314 19.7934C3.68665 19.9523 4.1003 20.0842 4.52133 20.1883C5.26578 20.3723 6.02512 20.4898 6.79038 20.5395C6.804 20.5423 6.81778 20.5442 6.83164 20.5453C6.83539 20.5453 6.83914 20.5429 6.84255 20.5429C7.04374 20.5545 7.248 20.5627 7.45636 20.5627C8.77707 20.5627 10.2338 20.2964 11.4035 19.4248C11.9665 19.8087 12.6863 19.8793 13.3131 19.612C13.8367 20.1972 14.5764 20.5435 15.3612 20.5708C16.146 20.5981 16.908 20.304 17.471 19.7565C18.2335 20.1163 19.134 20.0123 19.7944 19.4883C20.4548 18.9643 20.7608 18.111 20.5839 17.2868C20.407 16.4625 19.7778 15.8099 18.9605 15.6031C18.7099 14.7316 18.0238 14.0533 17.1495 13.8127C16.2752 13.5721 15.3386 13.8039 14.6775 14.4246C14.2965 14.2128 13.8545 14.1377 13.425 14.2118C13.3973 13.6676 13.3373 13.1254 13.2453 12.5883C13.1363 11.9372 12.8063 11.3436 12.3109 10.9075L14.1295 1.49982C14.1917 1.19159 14.1278 0.871286 13.9522 0.610476C13.6846 0.207079 13.1996 0.00565016 12.725 0.100827C12.2504 0.196004 11.8805 0.568867 11.7892 1.04423L9.98355 10.3837ZM14.522 15.1352C14.6667 15.2454 14.8724 15.2226 14.9895 15.0834C15.4667 14.5176 16.2265 14.2764 16.9426 14.4633C17.6588 14.6502 18.2038 15.232 18.3436 15.9588C18.3714 16.1018 18.4868 16.2114 18.6311 16.2316C19.2526 16.3191 19.7581 16.7762 19.9076 17.3857C20.057 17.9953 19.8202 18.6344 19.3097 18.9994C18.7991 19.3644 18.1178 19.3818 17.5893 19.0432C17.4458 18.9514 17.2565 18.9796 17.146 19.1093C16.7094 19.6264 16.0592 19.914 15.3829 19.889C14.7066 19.864 14.0794 19.5293 13.6821 18.9814C13.5772 18.837 13.3787 18.7979 13.2268 18.8918C12.789 19.1625 12.2338 19.1548 11.8037 18.8719C11.3735 18.5891 11.1464 18.0824 11.2215 17.5731C11.2966 17.0638 11.6602 16.6443 12.1537 16.4976C12.2967 16.4547 12.3952 16.3239 12.3968 16.1746C12.408 15.4505 12.9964 14.8684 13.7206 14.8652C14.0102 14.8642 14.292 14.9592 14.522 15.1352ZM11.7312 15.9284C11.0021 16.2503 10.5301 16.9705 10.5261 17.7675C10.5265 18.1912 10.662 18.6038 10.9128 18.9453C10.0813 19.4969 9.11597 19.813 8.11927 19.8599C8.69789 19.4777 9.21956 19.0156 9.6688 18.4873C9.78952 18.3426 9.77005 18.1274 9.62532 18.0067C9.48059 17.886 9.2654 17.9054 9.14468 18.0502C8.48231 18.8099 7.67057 19.4252 6.76003 19.8575C6.06075 19.806 5.36714 19.695 4.68671 19.5257C4.62567 19.5103 4.57111 19.4916 4.51178 19.4773C6.33411 18.8539 8.4214 17.7804 9.66096 15.956C9.76335 15.8004 9.72184 15.5913 9.56772 15.4866C9.41361 15.3819 9.20397 15.4202 9.09693 15.5728C7.75678 17.5465 5.2862 18.5814 3.4059 19.1073C2.88486 18.901 2.39745 18.6183 1.9597 18.2684C3.29065 18.0777 4.58343 17.6793 5.79089 17.0878C5.89947 17.0304 5.96877 16.919 5.9723 16.7962C5.97583 16.6734 5.91305 16.5582 5.80795 16.4947C5.70285 16.4311 5.57167 16.4289 5.46455 16.489C4.21817 17.169 2.4412 17.5148 1.37794 17.6713C1.15893 17.3953 0.998774 17.0773 0.907355 16.7369C6.14826 15.9421 8.20486 13.7988 8.96053 12.6016C9.08951 12.7258 9.23021 12.8373 9.38065 12.9344C9.88102 13.2473 10.4615 13.4081 11.0516 13.3971C11.0901 13.3971 11.1283 13.3971 11.1672 13.3951C11.6668 13.3867 12.1628 13.3089 12.641 13.1639C12.7 13.5881 12.7358 14.0152 12.7484 14.4433C12.1945 14.7506 11.8176 15.3009 11.7312 15.9284ZM12.5196 12.4812C12.0761 12.6285 11.6126 12.7068 11.1454 12.7134C10.6563 12.7421 10.1704 12.6196 9.75337 12.3625C9.58254 12.2549 9.42972 12.1211 9.30051 11.9659C9.44495 11.5914 9.7169 11.2799 10.0685 11.0862C10.4569 10.9068 10.9033 10.9012 11.2961 11.0708C11.9039 11.3212 12.3575 11.8442 12.5196 12.4812ZM12.4589 1.17348C12.5126 0.898412 12.7776 0.71777 13.0533 0.768362C13.1889 0.794759 13.3083 0.874177 13.3851 0.988992C13.4599 1.10023 13.487 1.2368 13.4604 1.36819L11.6923 10.5071C11.6408 10.4829 11.59 10.4553 11.5378 10.4348C11.2702 10.3321 10.9867 10.2767 10.7 10.2712L12.4589 1.17348Z" fill="black"/>
<path d="M16.0318 15.9634C16.17 15.7993 16.3902 15.7292 16.5978 15.7833C16.8054 15.8374 16.9635 16.0061 17.004 16.2168C17.0349 16.3773 17.1754 16.4933 17.3389 16.4933C17.3606 16.4933 17.3823 16.4912 17.4036 16.4872C17.4925 16.4701 17.5708 16.4184 17.6216 16.3435C17.6723 16.2686 17.6912 16.1767 17.6741 16.0879C17.5837 15.6191 17.232 15.2439 16.77 15.1234C16.308 15.0029 15.8179 15.1586 15.51 15.5235C15.3886 15.6676 15.4069 15.8828 15.551 16.0043C15.695 16.1258 15.9103 16.1075 16.0318 15.9634Z" fill="black"/>
<path d="M17.9038 11.8438C17.9038 12.5029 18.4382 13.0373 19.0973 13.0373C19.7565 13.0373 20.2908 12.5029 20.2908 11.8438C20.2908 11.1846 19.7565 10.6503 19.0973 10.6503C18.4382 10.6503 17.9038 11.1846 17.9038 11.8438ZM19.6088 11.8438C19.6088 12.1263 19.3798 12.3553 19.0973 12.3553C18.8148 12.3553 18.5858 12.1263 18.5858 11.8438C18.5858 11.5613 18.8148 11.3323 19.0973 11.3323C19.3798 11.3323 19.6088 11.5613 19.6088 11.8438Z" fill="black"/>
<path d="M16.8804 10.6503C17.4454 10.6503 17.9035 10.1923 17.9035 9.62726C17.9035 9.06227 17.4454 8.60425 16.8804 8.60425C16.3154 8.60425 15.8574 9.06227 15.8574 9.62726C15.8574 10.1923 16.3154 10.6503 16.8804 10.6503ZM16.8804 9.28626C17.0688 9.28626 17.2214 9.43893 17.2214 9.62726C17.2214 9.8156 17.0688 9.96827 16.8804 9.96827C16.6921 9.96827 16.5394 9.8156 16.5394 9.62726C16.5394 9.43893 16.6921 9.28626 16.8804 9.28626Z" fill="black"/>
<path d="M2.55878 7.92225C2.74711 7.92225 2.89978 7.76957 2.89978 7.58124V6.89923C2.89978 6.7109 2.74711 6.55823 2.55878 6.55823C2.37045 6.55823 2.21777 6.7109 2.21777 6.89923V7.58124C2.21777 7.76957 2.37045 7.92225 2.55878 7.92225Z" fill="black"/>
<path d="M2.89978 9.62726V8.94525C2.89978 8.75692 2.74711 8.60425 2.55878 8.60425C2.37045 8.60425 2.21777 8.75692 2.21777 8.94525V9.62726C2.21777 9.8156 2.37045 9.96827 2.55878 9.96827C2.74711 9.96827 2.89978 9.8156 2.89978 9.62726Z" fill="black"/>
<path d="M1.19403 8.60425H1.87604C2.06437 8.60425 2.21705 8.45158 2.21705 8.26325C2.21705 8.07491 2.06437 7.92224 1.87604 7.92224H1.19403C1.0057 7.92224 0.853027 8.07491 0.853027 8.26325C0.853027 8.45158 1.0057 8.60425 1.19403 8.60425Z" fill="black"/>
<path d="M3.24091 8.60425H3.92292C4.11125 8.60425 4.26392 8.45158 4.26392 8.26325C4.26392 8.07491 4.11125 7.92224 3.92292 7.92224H3.24091C3.05258 7.92224 2.8999 8.07491 2.8999 8.26325C2.8999 8.45158 3.05258 8.60425 3.24091 8.60425Z" fill="black"/>
<path d="M3.85195 12.2847L3.34044 12.7962C3.25179 12.8818 3.21624 13.0086 3.24745 13.1278C3.27866 13.2471 3.37177 13.3402 3.49099 13.3714C3.61022 13.4026 3.737 13.367 3.82262 13.2784L4.33413 12.7669C4.46336 12.6331 4.46151 12.4204 4.32998 12.2888C4.19844 12.1573 3.98575 12.1555 3.85195 12.2847Z" fill="black"/>
<path d="M5.86831 10.7501C5.73515 10.617 5.51929 10.617 5.38613 10.7501L4.87462 11.2616C4.78597 11.3472 4.75042 11.474 4.78163 11.5932C4.81284 11.7125 4.90595 11.8056 5.02517 11.8368C5.1444 11.868 5.27118 11.8324 5.3568 11.7438L5.86831 11.2323C6.00143 11.0991 6.00143 10.8833 5.86831 10.7501Z" fill="black"/>
<path d="M5.35623 12.2847C5.22242 12.1555 5.00974 12.1573 4.8782 12.2888C4.74666 12.4204 4.74481 12.6331 4.87404 12.7669L5.38555 13.2784C5.51936 13.4076 5.73204 13.4058 5.86358 13.2742C5.99512 13.1427 5.99697 12.93 5.86773 12.7962L5.35623 12.2847Z" fill="black"/>
<path d="M4.33404 11.2618L3.82253 10.7503C3.68873 10.621 3.47604 10.6229 3.34451 10.7544C3.21297 10.886 3.21112 11.0986 3.34035 11.2324L3.85186 11.744C3.98566 11.8732 4.19835 11.8713 4.32989 11.7398C4.46143 11.6083 4.46327 11.3956 4.33404 11.2618Z" fill="black"/>
<path d="M4.20403 3.51384L10.0011 4.53686C10.0208 4.54041 10.0408 4.54212 10.0608 4.54197C10.237 4.54108 10.3835 4.40611 10.3988 4.2306C10.4141 4.05508 10.2931 3.8968 10.1198 3.86542L4.3227 2.8424C4.13945 2.81416 3.96721 2.9375 3.93495 3.12008C3.90268 3.30266 4.0222 3.47757 4.20403 3.51384Z" fill="black"/>
<path d="M9.6601 6.24186C9.67979 6.2454 9.69976 6.24712 9.71977 6.24697C9.89595 6.24607 10.0424 6.11111 10.0577 5.93559C10.0731 5.76008 9.95213 5.60179 9.77877 5.57042L6.08261 4.91773C5.8971 4.88496 5.72016 5.00878 5.68739 5.19429C5.65462 5.3798 5.77843 5.55674 5.96394 5.58951L9.6601 6.24186Z" fill="black"/>
<path d="M4.57357 6.73318C4.55781 6.82227 4.5781 6.91396 4.62997 6.98809C4.68184 7.06221 4.76104 7.11269 4.85013 7.1284L9.319 7.91715C9.3386 7.92051 9.35845 7.92222 9.37834 7.92226C9.55525 7.92234 9.70285 7.78711 9.71821 7.61087C9.73357 7.43462 9.61159 7.2759 9.43733 7.24537L4.96846 6.45594C4.87932 6.4403 4.78763 6.46072 4.71356 6.51272C4.63949 6.56472 4.58914 6.64403 4.57357 6.73318Z" fill="black"/>
</svg>
